<?xml version="1.0" encoding="utf-8"?>
<!-- Generator: Adobe Illustrator 23.0.3, SVG Export Plug-In . SVG Version: 6.00 Build 0)  -->
<svg version="1.1" id="Calque_1" xmlns="http://www.w3.org/2000/svg" xmlns:xlink="http://www.w3.org/1999/xlink" x="0px"
	y="0px" viewBox="0 0 162.31 164.62" style="enable-background:new 0 0 162.31 164.62;" xml:space="preserve">
	<style type="text/css">
		.st0 {
			fill: #000;
		}
	</style>
	<g>
		<path class="st0" d="M161.08,82.37c0,28.4-14.86,53.33-37.24,67.5c3.52-7.09,5.53-15.14,5.53-23.7c0-6.71-1.23-13.11-3.5-19
		l20.32-23.04l-26.82,11.03c-8.81-12.1-22.63-19.89-38.2-19.89c-15.57,0-29.42,7.82-38.23,19.96L16.2,84.52l20.32,22.61
		c-2.27,5.88-3.5,12.31-3.5,19.04c0,8.55,2.01,16.66,5.53,23.74C16.18,135.74,1.32,110.77,1.32,82.37c0-44.13,35.77-79.9,79.86-79.9
		C125.31,2.46,161.08,38.23,161.08,82.37z" />
		<path class="st0"
			d="M81.6,110.74L46.04,96.5c8.1-9.97,20.84-16.37,35.16-16.37c14.29,0,27.01,6.4,35.11,16.33L81.6,110.74z" />
		<path class="st0" d="M123.63,109.73l-19.52,22.11l-22.89-20.41l-22.49,20.41l-19.94-22.19c-1.28,3.95-1.98,8.15-1.98,12.5
		c0,19.44,13.96,35.82,32.94,40.59l11.44-6.85l11.46,6.85c18.97-4.75,32.96-21.12,32.96-40.59
		C125.59,117.83,124.91,113.65,123.63,109.73z M81.2,154.52l-2.58-6.9l7.68-0.9L81.2,154.52z M103.5,141.01
		c-2.74,1.72-5.55,2.72-12.55,4.04c-6.57,1.25-9.85,1.87-13.75,2.03c-4.75,0.19-12.14-0.09-21.05-2.84l52.59-7.68
		C107.66,137.79,105.94,139.47,103.5,141.01z" />
	</g>
</svg>